<svg width="16" height="12" viewBox="0 0 16 12" fill="none" xmlns="http://www.w3.org/2000/svg">
<g clip-path="url(#clip0_519_3081)">
<mask id="mask0_519_3081" style="mask-type:luminance" maskUnits="userSpaceOnUse" x="12" y="0" width="4" height="12">
<path d="M12.8262 0.30957H15.6101C15.8215 0.30957 15.9977 0.491694 15.9977 0.710242V11.3463C15.9977 11.5648 15.8215 11.7469 15.6101 11.7469H12.8262C12.6148 11.7469 12.4386 11.5648 12.4386 11.3463V0.710242C12.4386 0.491694 12.6148 0.30957 12.8262 0.30957Z" fill="white"/>
</mask>
<g mask="url(#mask0_519_3081)">
<path d="M8.86182 1.6949L15.5748 -0.873047L19.592 10.3822L12.879 12.9319L8.86182 1.6949Z" fill="url(#paint0_linear_519_3081)"/>
</g>
<mask id="mask1_519_3081" style="mask-type:luminance" maskUnits="userSpaceOnUse" x="-1" y="0" width="9" height="12">
<path d="M4.65143 0.456341L0.0351801 9.9632C-0.0529163 10.1635 0.0175608 10.4003 0.211373 10.4914L2.69569 11.7844C2.8895 11.8755 3.11855 11.8026 3.20665 11.6023L7.8229 2.09545C7.911 1.89512 7.84052 1.65836 7.64671 1.5673L5.18001 0.274218C5.12715 0.237793 5.07429 0.237793 5.00382 0.237793C4.86286 0.237793 4.72191 0.328855 4.65143 0.456341Z" fill="white"/>
</mask>
<g mask="url(#mask1_519_3081)">
<path d="M-4.15845 2.07886L6.67741 -2.76562L12.0337 10.0559L1.19781 14.9004L-4.15845 2.07886Z" fill="url(#paint1_linear_519_3081)"/>
</g>
<mask id="mask2_519_3081" style="mask-type:luminance" maskUnits="userSpaceOnUse" x="6" y="0" width="7" height="12">
<path d="M8.54586 0.490838L6.5725 10.8537C6.53726 11.0722 6.6606 11.2726 6.87203 11.3272L9.60302 11.8918C9.81445 11.9282 10.0083 11.8007 10.0611 11.5822L12.0345 1.21933C12.0697 1.00078 11.9464 0.800448 11.735 0.745811L9.00396 0.181228C8.98634 0.181228 8.9511 0.181228 8.93349 0.181228C8.73967 0.163015 8.5811 0.308714 8.54586 0.490838Z" fill="white"/>
</mask>
<g mask="url(#mask2_519_3081)">
<path d="M2.83716 1.56617L11.4177 -1.69385L15.7521 10.5266L7.18912 13.7867L2.83716 1.56617Z" fill="url(#paint2_linear_519_3081)"/>
</g>
</g>
<defs>
<linearGradient id="paint0_linear_519_3081" x1="8.97807" y1="8.03607" x2="16.5546" y2="5.33341" gradientUnits="userSpaceOnUse">
<stop stop-color="#B02DE9"/>
<stop offset="0.02" stop-color="#B02DE9"/>
<stop offset="0.8" stop-color="#6D00CC"/>
<stop offset="1" stop-color="#6D00CC"/>
</linearGradient>
<linearGradient id="paint1_linear_519_3081" x1="2.41872" y1="6.74445" x2="10.5832" y2="3.32968" gradientUnits="userSpaceOnUse">
<stop stop-color="#FF00FF"/>
<stop offset="0.17" stop-color="#E90CF9"/>
<stop offset="0.54" stop-color="#C023ED"/>
<stop offset="0.73" stop-color="#B02DE9"/>
<stop offset="1" stop-color="#B02DE9"/>
</linearGradient>
<linearGradient id="paint2_linear_519_3081" x1="0.551097" y1="9.37924" x2="17.2428" y2="3.43466" gradientUnits="userSpaceOnUse">
<stop stop-color="#FF00FF"/>
<stop offset="0.02" stop-color="#FF00FF"/>
<stop offset="0.09" stop-color="#E90CF9"/>
<stop offset="0.23" stop-color="#C023ED"/>
<stop offset="0.3" stop-color="#B02DE9"/>
<stop offset="0.42" stop-color="#A42BE3"/>
<stop offset="0.63" stop-color="#8626D5"/>
<stop offset="0.85" stop-color="#6021C3"/>
<stop offset="1" stop-color="#6021C3"/>
</linearGradient>
<clipPath id="clip0_519_3081">
<rect width="16" height="12" fill="white"/>
</clipPath>
</defs>
</svg>
